<svg xmlns="http://www.w3.org/2000/svg" id="sw-js-blob-svg" viewBox="0 0 100 100" version="1.1">
  <defs>
    <linearGradient id="sw-gradient" x1="0" x2="1" y1="1" y2="0">
      <stop id="stop1" stop-color="rgba(248, 117, 55, 1)" offset="0%"/>
      <stop id="stop2" stop-color="rgba(251, 168, 31, 1)" offset="100%"/>
    </linearGradient>
  </defs>
  <path fill="url(#sw-gradient)" d="M24.8,-33.5C32.5,-28.5,39.4,-21.8,41.7,-13.8C43.9,-5.8,41.5,3.5,37.8,11.5C34.1,19.5,29.1,26.3,22.6,31.2C16.1,36,8,38.8,0.2,38.5C-7.6,38.2,-15.2,34.8,-22.8,30.3C-30.4,25.9,-38,20.3,-41.2,12.8C-44.4,5.3,-43.2,-4.2,-40.1,-12.7C-36.9,-21.2,-31.7,-28.8,-24.6,-34.1C-17.6,-39.3,-8.8,-42.3,-0.1,-42.1C8.5,-41.9,17.1,-38.6,24.8,-33.5Z" width="100%" height="100%" transform="translate(50 50)" stroke-width="0" style="transition: all 0.3s ease 0s;" stroke="url(#sw-gradient)"/>
</svg>
